<mxfile host="app.diagrams.net" modified="2022-05-13T03:48:44.901Z" agent="5.0 (Windows NT 10.0; Win64; x64) AppleWebKit/537.36 (KHTML, like Gecko) Chrome/101.0.4951.54 Safari/537.36" etag="pW1IFJhye2abQMb9QfqV" version="17.4.0" type="github">
  <diagram id="n7urEFa3WIJ0ezEd05qR" name="Page-1">
    <mxGraphModel dx="989" dy="667" grid="1" gridSize="10" guides="1" tooltips="1" connect="1" arrows="1" fold="1" page="1" pageScale="1" pageWidth="827" pageHeight="1169" math="0" shadow="0">
      <root>
        <mxCell id="0" />
        <mxCell id="1" parent="0" />
        <mxCell id="XYk2VYsn_T3xGYiQAIro-4" style="edgeStyle=orthogonalEdgeStyle;rounded=0;orthogonalLoop=1;jettySize=auto;html=1;exitX=0.5;exitY=1;exitDx=0;exitDy=0;fontSize=16;" edge="1" parent="1" source="XYk2VYsn_T3xGYiQAIro-1" target="XYk2VYsn_T3xGYiQAIro-2">
          <mxGeometry relative="1" as="geometry" />
        </mxCell>
        <mxCell id="XYk2VYsn_T3xGYiQAIro-5" style="edgeStyle=orthogonalEdgeStyle;rounded=0;orthogonalLoop=1;jettySize=auto;html=1;exitX=0.5;exitY=1;exitDx=0;exitDy=0;fontSize=16;" edge="1" parent="1" source="XYk2VYsn_T3xGYiQAIro-1" target="XYk2VYsn_T3xGYiQAIro-3">
          <mxGeometry relative="1" as="geometry" />
        </mxCell>
        <mxCell id="XYk2VYsn_T3xGYiQAIro-1" value="&lt;font style=&quot;font-size: 16px&quot;&gt;农产品电商平台&lt;/font&gt;" style="rounded=0;whiteSpace=wrap;html=1;" vertex="1" parent="1">
          <mxGeometry x="310" y="210" width="164" height="60" as="geometry" />
        </mxCell>
        <mxCell id="XYk2VYsn_T3xGYiQAIro-2" value="商品交易模块" style="rounded=0;whiteSpace=wrap;html=1;" vertex="1" parent="1">
          <mxGeometry x="150" y="320" width="120" height="60" as="geometry" />
        </mxCell>
        <mxCell id="XYk2VYsn_T3xGYiQAIro-3" value="个人中心模块" style="rounded=0;whiteSpace=wrap;html=1;" vertex="1" parent="1">
          <mxGeometry x="530" y="320" width="120" height="60" as="geometry" />
        </mxCell>
      </root>
    </mxGraphModel>
  </diagram>
</mxfile>
